<svg xmlns="http://www.w3.org/2000/svg" width="130" height="130" viewBox="0 0 130 130" fill="none">
  <path fill-rule="evenodd" clip-rule="evenodd" d="M39.598 12.8525C45.5238 10.8212 49.3805 9.49958 52.663 8.8875V38.0671L7.97546 52.9629C7.97546 36.3879 8.0188 28.0354 10.023 25.1862C12.0609 22.278 20.1734 19.4992 36.3955 13.9425L36.4942 13.9087L39.598 12.8525ZM7.97546 61.5212L52.663 46.6254V116.603C49.895 116.251 48.1075 115.471 45.345 114.263C30.9367 107.969 7.97546 93.1492 7.97546 62.61V61.5212ZM60.788 46.6254V116.609C62.5847 116.38 63.1678 108.504 63.7814 100.214C64.1132 95.7334 64.4538 91.1316 64.9999 87.5516C67.5754 70.6681 74.8104 70.3449 83.896 69.9389C90.4744 69.645 98.023 69.3078 105.475 62.61V61.5212L60.788 46.6254ZM60.788 8.88208V38.0562L105.475 52.9521C105.475 36.3825 105.432 28.03 103.428 25.1808C101.388 22.269 93.2577 19.487 76.996 13.9222L76.9567 13.9087L73.853 12.8471C67.9271 10.8158 64.0705 9.49416 60.788 8.88208ZM106.618 83.3086L100.087 76.5444L82.5374 94.7372L76.0064 87.973L69.4755 94.7372L82.5374 108.282L106.618 83.3086ZM82.5374 99.2414L100.087 81.0325L102.27 83.3086L82.5374 103.745L73.8243 94.7372L76.0064 92.5573L82.5374 99.2414Z" fill="#419A9F"/>
</svg>