<svg xmlns="http://www.w3.org/2000/svg" width="13" height="10" viewBox="0 0 13 10" fill="none">
  <path fill-rule="evenodd" clip-rule="evenodd" d="M7.42747 9.05989C7.18138 9.34079 6.84779 9.49857 6.49997 9.49857C6.15216 9.49857 5.81857 9.34079 5.57247 9.05989L0.621724 3.40389C0.37562 3.12249 0.237406 2.74089 0.237488 2.34304C0.23757 1.94518 0.375941 1.56365 0.622161 1.28239C0.868382 1.00113 1.20228 0.843168 1.55041 0.843262C1.89853 0.843356 2.23237 1.00149 2.47847 1.28289L6.49997 5.87889L10.5215 1.28289C10.7689 1.00952 11.1004 0.858143 11.4445 0.861374C11.7887 0.864605 12.1179 1.02218 12.3614 1.30016C12.6048 1.57815 12.743 1.95429 12.7462 2.34759C12.7493 2.74088 12.6172 3.11986 12.3782 3.40289L7.42835 9.06089L7.42747 9.05989Z" fill="black"/>
</svg>